<svg xmlns="http://www.w3.org/2000/svg" width="640" height="380" viewBox="0 0 640 380">
<rect width="640" height="380" fill="#eef7fc"/>
<rect x="160" y="40" width="320" height="300" rx="18" fill="#ffffff" stroke="#8ebbd6" stroke-width="4"/>
<rect x="220" y="78" width="170" height="14" rx="7" fill="#7fb3d5"/>
<rect x="205" y="130" width="24" height="24" rx="4" fill="#cfe8f7" stroke="#1b4965" stroke-width="3"/>
<path d="M210 142 L217 149 L227 136" fill="none" stroke="#1b4965" stroke-width="4"/>
<rect x="245" y="132" width="150" height="10" rx="5" fill="#8fc3de"/>
<rect x="205" y="180" width="24" height="24" rx="4" fill="#cfe8f7" stroke="#1b4965" stroke-width="3"/>
<path d="M210 192 L217 199 L227 186" fill="none" stroke="#1b4965" stroke-width="4"/>
<rect x="245" y="182" width="120" height="10" rx="5" fill="#8fc3de"/>
<rect x="205" y="230" width="24" height="24" rx="4" fill="#cfe8f7" stroke="#1b4965" stroke-width="3"/>
<path d="M210 242 L217 249 L227 236" fill="none" stroke="#1b4965" stroke-width="4"/>
<rect x="245" y="232" width="165" height="10" rx="5" fill="#8fc3de"/>
<text x="320" y="330" text-anchor="middle" font-family="Arial" font-size="28" font-weight="bold" fill="#1b4965">Travel Tips and Checklist</text>
</svg>